<svg version="1.1" id="Layer_1" xmlns="http://www.w3.org/2000/svg" xmlns:xlink="http://www.w3.org/1999/xlink" x="0px" y="0px"
	 width="100%" viewBox="0 0 500 500" enable-background="new 0 0 500 500" xml:space="preserve">
<path fill="#1C336D" opacity="1.000000" stroke="none" 
	d="
M275.000000,501.000000 
	C183.333359,501.000000 92.166710,501.000000 1.000049,501.000000 
	C1.000033,334.333405 1.000033,167.666794 1.000016,1.000138 
	C167.666565,1.000092 334.333130,1.000092 500.999756,1.000046 
	C500.999847,167.666519 500.999847,334.333038 500.999939,500.999786 
	C425.833344,501.000000 350.666656,501.000000 275.000000,501.000000 
M266.501587,245.565338 
	C260.596069,237.925125 254.742432,230.243698 248.736038,222.683609 
	C247.685425,221.361237 246.044266,219.737244 244.587570,219.644867 
	C238.988770,219.289856 233.354065,219.501038 227.631180,219.501038 
	C227.631180,226.095978 227.631180,232.118454 227.631180,238.514999 
	C233.151520,238.514999 238.293167,238.498062 243.434677,238.518158 
	C258.944672,238.578735 257.912048,236.568939 257.725708,254.273209 
	C257.713837,255.401505 257.158722,256.515289 256.954895,257.653473 
	C256.820404,258.404358 256.520172,259.453949 256.878815,259.913849 
	C260.399780,264.428528 264.043579,268.847443 268.052063,273.785858 
	C275.891083,264.134888 283.054596,255.315552 291.003754,245.529007 
	C291.168640,248.400497 291.333557,249.977448 291.337585,251.554794 
	C291.362183,261.216400 291.551178,270.884094 291.261566,280.537048 
	C291.127045,285.019836 292.701019,286.536194 297.032928,286.068909 
	C299.832214,285.766968 302.718109,285.761688 305.516022,286.069977 
	C309.865692,286.549194 310.848175,284.586212 310.826477,280.606995 
	C310.692841,256.120422 310.759888,231.632767 310.759064,207.145462 
	C310.759033,205.646286 310.995361,204.092346 310.677002,202.662933 
	C310.339905,201.149384 309.470978,199.754257 308.834320,198.307419 
	C307.461182,199.017334 305.909241,199.517426 304.763184,200.493896 
	C303.520813,201.552460 302.652649,203.051788 301.628021,204.364151 
	C291.279175,217.619141 280.957855,230.895859 270.531616,244.089661 
	C269.744720,245.085434 268.214233,245.493591 266.501587,245.565338 
M224.436005,284.849213 
	C224.436005,275.635681 224.436005,266.422150 224.436005,257.428314 
	C225.949661,257.165100 226.269363,257.061859 226.589371,257.060944 
	C232.417221,257.043976 238.245071,257.034760 244.072937,257.033020 
	C255.263168,257.029663 255.107407,257.030609 255.206161,246.068848 
	C255.241104,242.189026 254.191788,240.771667 250.132706,240.916672 
	C241.863083,241.212067 233.575516,241.005096 225.138947,241.005096 
	C225.138947,232.819229 225.138947,225.099960 225.138947,217.004410 
	C233.017014,217.004410 240.641785,217.004410 248.266541,217.004410 
	C260.120850,217.004425 259.978973,217.003464 260.059326,205.163376 
	C260.085388,201.320282 259.100769,199.886505 255.011047,199.948227 
	C240.194550,200.171783 225.369339,200.210800 210.554688,199.932999 
	C205.923843,199.846191 205.000977,201.609589 205.052155,205.769180 
	C205.244644,221.419266 205.128922,237.073135 205.129105,252.725586 
	C205.129211,262.383484 205.141068,272.041412 205.122925,281.699280 
	C205.118561,284.025604 205.231949,286.131561 208.439819,286.012878 
	C213.576065,285.822845 218.715210,285.710541 224.436005,284.849213 
M238.345123,259.477997 
	C234.746643,259.477997 231.148148,259.477997 227.482925,259.477997 
	C227.482925,268.738037 227.482925,277.281616 227.482925,286.013489 
	C232.259460,286.013489 236.752335,286.229767 241.200226,285.877747 
	C242.484818,285.776062 244.653473,284.079865 244.693192,283.048340 
	C244.990219,275.333130 244.854736,267.601227 244.854736,259.478088 
	C242.544403,259.478088 240.908691,259.478088 238.345123,259.477997 
M227.180405,339.133331 
	C227.180405,337.674316 227.180405,336.215302 227.180405,333.699310 
	C229.309647,336.010803 230.704773,337.525360 232.274200,339.229156 
	C233.742676,337.438019 235.033051,335.864105 236.676208,333.859894 
	C237.020386,337.362335 237.293777,340.144531 237.567184,342.926697 
	C237.989395,342.881470 238.411621,342.836243 238.833832,342.791016 
	C238.833832,337.945587 238.833832,333.100189 238.833832,327.230988 
	C236.374146,330.471191 234.434982,333.025696 232.315720,335.817444 
	C230.041016,333.100647 227.944672,330.596893 225.585297,327.778961 
	C225.585297,333.390320 225.585297,338.162659 225.585297,342.934967 
	C225.922546,342.949524 226.259781,342.964050 226.597031,342.978577 
	C226.790985,341.983612 226.984955,340.988617 227.180405,339.133331 
M304.866974,315.824066 
	C305.585815,313.648773 306.648712,311.520050 306.950928,309.288300 
	C307.557312,304.810638 304.235352,301.115234 299.805603,300.885071 
	C295.099182,300.640533 291.444611,304.187256 291.591705,308.856537 
	C291.733398,313.353638 295.289368,316.601044 299.831085,316.261383 
	C301.286072,316.152618 302.718475,315.741974 304.866974,315.824066 
M272.024994,307.736633 
	C271.923157,312.361511 274.006042,315.411560 278.639404,316.197113 
	C282.548645,316.859924 285.441650,315.131256 287.027954,311.502930 
	C288.684235,307.714600 286.831146,303.231750 283.024933,301.491913 
	C278.569275,299.455231 274.795471,301.342651 272.024994,307.736633 
M246.919357,312.037445 
	C247.131104,311.297058 247.468475,310.567047 247.530792,309.814270 
	C247.710114,307.647858 248.677780,304.255768 247.711792,303.541504 
	C245.357544,301.800751 242.086792,301.299530 238.894043,300.198822 
	C238.894043,306.299713 238.894043,311.094635 238.894043,315.887421 
	C240.575500,314.221375 241.858170,312.950500 243.140823,311.679596 
	C244.567947,313.202026 245.995071,314.724426 247.422180,316.246857 
	C247.703003,316.057251 247.983810,315.867645 248.264618,315.678070 
	C247.896606,314.693817 247.528595,313.709564 246.919357,312.037445 
M268.180847,309.962128 
	C268.052002,303.679932 265.031799,300.435089 259.749634,300.903900 
	C255.222595,301.305664 251.583466,305.659363 253.160629,310.012024 
	C254.060425,312.495300 256.833832,315.193695 259.340546,315.998779 
	C263.475922,317.326904 266.603973,314.857452 268.180847,309.962128 
M225.635895,305.112122 
	C224.172409,308.620056 222.708908,312.127991 221.245407,315.635895 
	C221.489273,316.138672 221.733124,316.641418 221.976990,317.144196 
	C225.825989,310.498260 229.896423,312.839233 234.436188,315.389313 
	C232.377975,310.588409 230.319748,305.787476 227.851990,300.031281 
	C226.832321,302.331604 226.368195,303.378632 225.635895,305.112122 
M282.120148,336.612366 
	C281.374023,338.660522 280.627930,340.708710 279.881805,342.756866 
	C280.095703,343.224548 280.309570,343.692230 280.523468,344.159882 
	C284.360718,337.367401 288.462067,339.943237 292.950012,342.431519 
	C290.899689,337.650818 288.849396,332.870148 286.349945,327.042206 
	C284.703217,330.826324 283.592682,333.378418 282.120148,336.612366 
M252.144455,332.777649 
	C252.144379,333.607697 252.249130,334.453949 252.124100,335.264709 
	C251.783279,337.474579 253.343292,340.902924 249.429581,341.088959 
	C245.193146,341.290375 246.300583,337.734436 246.099625,335.276276 
	C245.906738,332.916992 245.816574,330.549347 245.681290,328.185364 
	C245.167770,328.216400 244.654251,328.247406 244.140732,328.278412 
	C244.140732,332.021820 243.768326,335.822235 244.328659,339.479797 
	C244.545135,340.892792 246.743469,342.736053 248.282837,343.009399 
	C249.873260,343.291779 253.087250,342.177032 253.287170,341.201385 
	C254.147446,337.003479 254.160797,332.631989 254.482590,328.323730 
	C253.863800,328.299011 253.245010,328.274261 252.626205,328.249542 
	C252.465729,329.467804 252.305237,330.686035 252.144455,332.777649 
M216.506790,303.035095 
	C216.733490,302.388123 216.960190,301.741180 217.186905,301.094238 
	C214.929474,301.094238 212.672028,301.094238 210.646942,301.094238 
	C210.646942,306.461121 210.646942,311.194916 210.646942,315.928711 
	C210.976318,315.945312 211.305710,315.961884 211.635086,315.978455 
	C211.998077,314.506012 212.361069,313.033569 212.691330,311.693939 
	C214.498627,311.362244 216.004181,311.085968 217.509720,310.809662 
	C217.501968,310.519196 217.494232,310.228729 217.486481,309.938232 
	C215.811218,309.541382 214.135956,309.144531 212.343353,308.719879 
	C212.343353,306.945923 212.343353,305.314392 212.343353,303.417694 
	C213.426819,303.295410 214.547318,303.168945 216.506790,303.035095 
M261.619659,339.114258 
	C261.619659,335.454224 261.619659,331.794159 261.619659,328.134125 
	C261.010925,328.142059 260.402161,328.150024 259.793427,328.157990 
	C259.793427,333.036652 259.793427,337.915314 259.793427,342.661926 
	C262.045929,342.661926 264.040222,342.661926 266.034485,342.661926 
	C266.082520,342.386566 266.130524,342.111206 266.178528,341.835815 
	C264.691742,341.216675 263.204987,340.597504 261.619659,339.114258 
M272.180542,334.787354 
	C272.036469,332.630310 271.892365,330.473236 271.748260,328.316193 
	C271.297302,328.337891 270.846375,328.359619 270.395416,328.381348 
	C270.395416,333.194519 270.395416,338.007690 270.395416,343.212769 
	C272.779236,342.987946 274.788147,342.798462 276.797089,342.608978 
	C276.771027,342.252289 276.744995,341.895599 276.718964,341.538910 
	C275.223663,341.186279 273.728394,340.833649 272.180573,340.468628 
	C272.180573,338.689636 272.180573,337.197906 272.180542,334.787354 
z"/>
<path fill="#F9FAFB" opacity="1.000000" stroke="none" 
	d="
M266.765503,245.870117 
	C268.214233,245.493591 269.744720,245.085434 270.531616,244.089661 
	C280.957855,230.895859 291.279175,217.619141 301.628021,204.364151 
	C302.652649,203.051788 303.520813,201.552460 304.763184,200.493896 
	C305.909241,199.517426 307.461182,199.017334 308.834320,198.307419 
	C309.470978,199.754257 310.339905,201.149384 310.677002,202.662933 
	C310.995361,204.092346 310.759033,205.646286 310.759064,207.145462 
	C310.759888,231.632767 310.692841,256.120422 310.826477,280.606995 
	C310.848175,284.586212 309.865692,286.549194 305.516022,286.069977 
	C302.718109,285.761688 299.832214,285.766968 297.032928,286.068909 
	C292.701019,286.536194 291.127045,285.019836 291.261566,280.537048 
	C291.551178,270.884094 291.362183,261.216400 291.337585,251.554794 
	C291.333557,249.977448 291.168640,248.400497 291.003754,245.529007 
	C283.054596,255.315552 275.891083,264.134888 268.052063,273.785858 
	C264.043579,268.847443 260.399780,264.428528 256.878815,259.913849 
	C256.520172,259.453949 256.820404,258.404358 256.954895,257.653473 
	C257.158722,256.515289 257.713837,255.401505 257.725708,254.273209 
	C257.912048,236.568939 258.944672,238.578735 243.434677,238.518158 
	C238.293167,238.498062 233.151520,238.514999 227.631180,238.514999 
	C227.631180,232.118454 227.631180,226.095978 227.631180,219.501038 
	C233.354065,219.501038 238.988770,219.289856 244.587570,219.644867 
	C246.044266,219.737244 247.685425,221.361237 248.736038,222.683609 
	C254.742432,230.243698 260.596069,237.925125 266.765503,245.870117 
z"/>
<path fill="#FCFCFD" opacity="1.000000" stroke="none" 
	d="
M224.144562,285.207306 
	C218.715210,285.710541 213.576065,285.822845 208.439819,286.012878 
	C205.231949,286.131561 205.118561,284.025604 205.122925,281.699280 
	C205.141068,272.041412 205.129211,262.383484 205.129105,252.725586 
	C205.128922,237.073135 205.244644,221.419266 205.052155,205.769180 
	C205.000977,201.609589 205.923843,199.846191 210.554688,199.932999 
	C225.369339,200.210800 240.194550,200.171783 255.011047,199.948227 
	C259.100769,199.886505 260.085388,201.320282 260.059326,205.163376 
	C259.978973,217.003464 260.120850,217.004425 248.266541,217.004410 
	C240.641785,217.004410 233.017014,217.004410 225.138947,217.004410 
	C225.138947,225.099960 225.138947,232.819229 225.138947,241.005096 
	C233.575516,241.005096 241.863083,241.212067 250.132706,240.916672 
	C254.191788,240.771667 255.241104,242.189026 255.206161,246.068848 
	C255.107407,257.030609 255.263168,257.029663 244.072937,257.033020 
	C238.245071,257.034760 232.417221,257.043976 226.589371,257.060944 
	C226.269363,257.061859 225.949661,257.165100 224.436005,257.428314 
	C224.436005,266.422150 224.436005,275.635681 224.144562,285.207306 
z"/>
<path fill="#F8F9FA" opacity="1.000000" stroke="none" 
	d="
M238.809052,259.478027 
	C240.908691,259.478088 242.544403,259.478088 244.854736,259.478088 
	C244.854736,267.601227 244.990219,275.333130 244.693192,283.048340 
	C244.653473,284.079865 242.484818,285.776062 241.200226,285.877747 
	C236.752335,286.229767 232.259460,286.013489 227.482925,286.013489 
	C227.482925,277.281616 227.482925,268.738037 227.482925,259.477997 
	C231.148148,259.477997 234.746643,259.477997 238.809052,259.478027 
z"/>
<path fill="#E1E8EF" opacity="1.000000" stroke="none" 
	d="
M227.179657,339.563477 
	C226.984955,340.988617 226.790985,341.983612 226.597031,342.978577 
	C226.259781,342.964050 225.922546,342.949524 225.585297,342.934967 
	C225.585297,338.162659 225.585297,333.390320 225.585297,327.778961 
	C227.944672,330.596893 230.041016,333.100647 232.315720,335.817444 
	C234.434982,333.025696 236.374146,330.471191 238.833832,327.230988 
	C238.833832,333.100189 238.833832,337.945587 238.833832,342.791016 
	C238.411621,342.836243 237.989395,342.881470 237.567184,342.926697 
	C237.293777,340.144531 237.020386,337.362335 236.676208,333.859894 
	C235.033051,335.864105 233.742676,337.438019 232.274200,339.229156 
	C230.704773,337.525360 229.309647,336.010803 227.180405,333.699310 
	C227.180405,336.215302 227.180405,337.674316 227.179657,339.563477 
z"/>
<path fill="#E1E8EF" opacity="1.000000" stroke="none" 
	d="
M304.514099,315.646759 
	C302.718475,315.741974 301.286072,316.152618 299.831085,316.261383 
	C295.289368,316.601044 291.733398,313.353638 291.591705,308.856537 
	C291.444611,304.187256 295.099182,300.640533 299.805603,300.885071 
	C304.235352,301.115234 307.557312,304.810638 306.950928,309.288300 
	C306.648712,311.520050 305.585815,313.648773 304.514099,315.646759 
M301.019714,303.134644 
	C298.783081,304.093903 295.814392,304.505981 294.552734,306.194000 
	C293.625122,307.435089 294.252258,310.899994 295.437531,312.354370 
	C296.580536,313.756897 299.327637,313.852142 301.874939,314.687195 
	C301.489380,312.805725 301.306549,311.913544 301.017517,310.502991 
	C305.191162,312.681763 305.341797,310.013489 304.761932,307.659851 
	C304.375702,306.092072 302.800262,304.817291 301.019714,303.134644 
z"/>
<path fill="#E1E8EF" opacity="1.000000" stroke="none" 
	d="
M272.069031,307.343048 
	C274.795471,301.342651 278.569275,299.455231 283.024933,301.491913 
	C286.831146,303.231750 288.684235,307.714600 287.027954,311.502930 
	C285.441650,315.131256 282.548645,316.859924 278.639404,316.197113 
	C274.006042,315.411560 271.923157,312.361511 272.069031,307.343048 
M285.072510,306.908722 
	C283.432922,302.823700 280.422638,301.785339 276.802643,303.908630 
	C273.813385,305.661957 273.076447,308.883026 275.228760,311.542877 
	C276.410919,313.003784 279.141174,314.005157 281.087158,313.879303 
	C284.478210,313.660004 285.453064,310.880890 285.072510,306.908722 
z"/>
<path fill="#D4DDE8" opacity="1.000000" stroke="none" 
	d="
M247.039978,312.381409 
	C247.528595,313.709564 247.896606,314.693817 248.264618,315.678070 
	C247.983810,315.867645 247.703003,316.057251 247.422180,316.246857 
	C245.995071,314.724426 244.567947,313.202026 243.140823,311.679596 
	C241.858170,312.950500 240.575500,314.221375 238.894043,315.887421 
	C238.894043,311.094635 238.894043,306.299713 238.894043,300.198822 
	C242.086792,301.299530 245.357544,301.800751 247.711792,303.541504 
	C248.677780,304.255768 247.710114,307.647858 247.530792,309.814270 
	C247.468475,310.567047 247.131104,311.297058 247.039978,312.381409 
M246.109299,304.874664 
	C244.548141,304.135651 242.986984,303.396637 240.958588,302.436432 
	C240.958588,305.413818 240.958588,307.253876 240.958588,309.127869 
	C244.002411,309.400421 246.450363,309.431366 246.109299,304.874664 
z"/>
<path fill="#E1E8EF" opacity="1.000000" stroke="none" 
	d="
M268.128143,310.322327 
	C266.603973,314.857452 263.475922,317.326904 259.340546,315.998779 
	C256.833832,315.193695 254.060425,312.495300 253.160629,310.012024 
	C251.583466,305.659363 255.222595,301.305664 259.749634,300.903900 
	C265.031799,300.435089 268.052002,303.679932 268.128143,310.322327 
M257.528595,303.843231 
	C256.751373,306.009796 255.298523,308.222473 255.442184,310.326141 
	C255.533066,311.656952 257.900177,313.654022 259.436920,313.848785 
	C261.211151,314.073639 264.042664,313.159515 264.867065,311.800720 
	C265.837341,310.201599 266.031067,306.735260 264.960754,305.633179 
	C263.489319,304.117981 260.515900,304.061432 257.528595,303.843231 
z"/>
<path fill="#D4DDE8" opacity="1.000000" stroke="none" 
	d="
M225.769989,304.768890 
	C226.368195,303.378632 226.832321,302.331604 227.851990,300.031281 
	C230.319748,305.787476 232.377975,310.588409 234.436188,315.389313 
	C229.896423,312.839233 225.825989,310.498260 221.976990,317.144196 
	C221.733124,316.641418 221.489273,316.138672 221.245407,315.635895 
	C222.708908,312.127991 224.172409,308.620056 225.769989,304.768890 
z"/>
<path fill="#D4DDE8" opacity="1.000000" stroke="none" 
	d="
M282.301147,336.271423 
	C283.592682,333.378418 284.703217,330.826324 286.349945,327.042206 
	C288.849396,332.870148 290.899689,337.650818 292.950012,342.431519 
	C288.462067,339.943237 284.360718,337.367401 280.523468,344.159882 
	C280.309570,343.692230 280.095703,343.224548 279.881805,342.756866 
	C280.627930,340.708710 281.374023,338.660522 282.301147,336.271423 
z"/>
<path fill="#E1E8EF" opacity="1.000000" stroke="none" 
	d="
M252.144592,332.340973 
	C252.305237,330.686035 252.465729,329.467804 252.626205,328.249542 
	C253.245010,328.274261 253.863800,328.299011 254.482590,328.323730 
	C254.160797,332.631989 254.147446,337.003479 253.287170,341.201385 
	C253.087250,342.177032 249.873260,343.291779 248.282837,343.009399 
	C246.743469,342.736053 244.545135,340.892792 244.328659,339.479797 
	C243.768326,335.822235 244.140732,332.021820 244.140732,328.278412 
	C244.654251,328.247406 245.167770,328.216400 245.681290,328.185364 
	C245.816574,330.549347 245.906738,332.916992 246.099625,335.276276 
	C246.300583,337.734436 245.193146,341.290375 249.429581,341.088959 
	C253.343292,340.902924 251.783279,337.474579 252.124100,335.264709 
	C252.249130,334.453949 252.144379,333.607697 252.144592,332.340973 
z"/>
<path fill="#E1E8EF" opacity="1.000000" stroke="none" 
	d="
M216.087296,303.038788 
	C214.547318,303.168945 213.426819,303.295410 212.343353,303.417694 
	C212.343353,305.314392 212.343353,306.945923 212.343353,308.719879 
	C214.135956,309.144531 215.811218,309.541382 217.486481,309.938232 
	C217.494232,310.228729 217.501968,310.519196 217.509720,310.809662 
	C216.004181,311.085968 214.498627,311.362244 212.691330,311.693939 
	C212.361069,313.033569 211.998077,314.506012 211.635086,315.978455 
	C211.305710,315.961884 210.976318,315.945312 210.646942,315.928711 
	C210.646942,311.194916 210.646942,306.461121 210.646942,301.094238 
	C212.672028,301.094238 214.929474,301.094238 217.186890,301.094238 
	C216.960190,301.741180 216.733490,302.388123 216.087296,303.038788 
z"/>
<path fill="#D4DDE8" opacity="1.000000" stroke="none" 
	d="
M261.668945,339.546326 
	C263.204987,340.597504 264.691742,341.216675 266.178528,341.835815 
	C266.130524,342.111206 266.082520,342.386566 266.034485,342.661926 
	C264.040222,342.661926 262.045929,342.661926 259.793427,342.661926 
	C259.793427,337.915314 259.793427,333.036652 259.793427,328.157990 
	C260.402161,328.150024 261.010925,328.142059 261.619659,328.134125 
	C261.619659,331.794159 261.619659,335.454224 261.668945,339.546326 
z"/>
<path fill="#E1E8EF" opacity="1.000000" stroke="none" 
	d="
M272.180542,335.246765 
	C272.180573,337.197906 272.180573,338.689636 272.180573,340.468628 
	C273.728394,340.833649 275.223663,341.186279 276.718964,341.538910 
	C276.744995,341.895599 276.771027,342.252289 276.797089,342.608978 
	C274.788147,342.798462 272.779236,342.987946 270.395416,343.212769 
	C270.395416,338.007690 270.395416,333.194519 270.395416,328.381348 
	C270.846375,328.359619 271.297302,328.337891 271.748260,328.316193 
	C271.892365,330.473236 272.036469,332.630310 272.180542,335.246765 
z"/>
<path fill="#223972" opacity="1.000000" stroke="none" 
	d="
M301.388397,303.273010 
	C302.800262,304.817291 304.375702,306.092072 304.761932,307.659851 
	C305.341797,310.013489 305.191162,312.681763 301.017517,310.502991 
	C301.306549,311.913544 301.489380,312.805725 301.874939,314.687195 
	C299.327637,313.852142 296.580536,313.756897 295.437531,312.354370 
	C294.252258,310.899994 293.625122,307.435089 294.552734,306.194000 
	C295.814392,304.505981 298.783081,304.093903 301.388397,303.273010 
z"/>
<path fill="#223972" opacity="1.000000" stroke="none" 
	d="
M285.141113,307.316254 
	C285.453064,310.880890 284.478210,313.660004 281.087158,313.879303 
	C279.141174,314.005157 276.410919,313.003784 275.228760,311.542877 
	C273.076447,308.883026 273.813385,305.661957 276.802643,303.908630 
	C280.422638,301.785339 283.432922,302.823700 285.141113,307.316254 
z"/>
<path fill="#223972" opacity="1.000000" stroke="none" 
	d="
M246.258820,305.300903 
	C246.450363,309.431366 244.002411,309.400421 240.958588,309.127869 
	C240.958588,307.253876 240.958588,305.413818 240.958588,302.436432 
	C242.986984,303.396637 244.548141,304.135651 246.258820,305.300903 
z"/>
<path fill="#223972" opacity="1.000000" stroke="none" 
	d="
M257.857300,303.611572 
	C260.515900,304.061432 263.489319,304.117981 264.960754,305.633179 
	C266.031067,306.735260 265.837341,310.201599 264.867065,311.800720 
	C264.042664,313.159515 261.211151,314.073639 259.436920,313.848785 
	C257.900177,313.654022 255.533066,311.656952 255.442184,310.326141 
	C255.298523,308.222473 256.751373,306.009796 257.857300,303.611572 
z"/>
</svg>